<?xml version="1.0" standalone="no"?>
<!DOCTYPE svg PUBLIC "-//W3C//DTD SVG 20010904//EN"
 "http://www.w3.org/TR/2001/REC-SVG-20010904/DTD/svg10.dtd">
<svg version="1.0" xmlns="http://www.w3.org/2000/svg"
 width="200.000000pt" height="189.000000pt" viewBox="0 0 200.000000 189.000000"
 preserveAspectRatio="xMidYMid meet">

<g transform="translate(0.000000,189.000000) scale(0.100000,-0.100000)"
fill="#ffffff" stroke="none">
<path d="M1685 1831 l-60 -6 -3 -47 c-3 -47 -3 -48 26 -48 29 0 30 -1 37 -65
3 -36 11 -65 16 -65 5 0 9 -18 9 -39 0 -36 3 -40 30 -46 17 -4 38 -14 47 -23
15 -16 16 -12 10 48 -4 35 -12 67 -18 71 -8 5 -8 8 0 13 7 5 9 26 5 60 -6 51
-5 53 20 60 23 6 26 11 26 51 l0 45 -42 -2 c-24 -1 -70 -4 -103 -7z m54 -195
c-5 -6 -4 -15 3 -23 8 -10 8 -17 0 -25 -9 -9 -12 -7 -12 10 0 13 -6 22 -15 22
-20 0 -19 19 2 42 17 19 18 19 24 1 4 -10 3 -22 -2 -27z"/>
<path d="M1393 1791 c-61 -29 -67 -45 -59 -184 4 -65 10 -125 12 -132 7 -17
46 -27 58 -15 6 6 18 10 28 10 21 0 22 22 8 140 -6 55 -5 78 3 87 24 25 39 -4
50 -92 l11 -87 50 7 c28 3 51 7 52 8 6 6 -19 186 -29 206 -30 62 -113 85 -184
52z"/>
<path d="M1205 1773 c-73 -5 -185 -24 -185 -31 1 -40 22 -197 27 -205 4 -6 6
-27 5 -47 0 -19 3 -69 8 -110 5 -41 14 -138 20 -215 6 -77 13 -153 16 -169 l6
-28 87 7 c94 8 136 28 147 69 3 13 -2 94 -10 181 -9 87 -16 165 -16 173 0 11
-9 13 -41 9 -22 -3 -43 -7 -45 -10 -2 -2 -1 -31 2 -64 6 -53 9 -60 25 -56 24
7 25 -18 3 -53 -13 -19 -14 -24 -3 -22 8 2 15 -7 17 -22 3 -21 2 -22 -11 -11
-14 11 -16 6 -19 -36 -3 -44 -5 -48 -31 -51 -25 -3 -28 -1 -23 16 4 11 0 88
-9 172 -8 84 -15 161 -15 171 0 15 12 19 70 25 l70 7 0 36 c0 58 -8 63 -80 55
-72 -8 -80 -2 -80 64 0 41 1 42 33 42 17 0 49 3 70 6 34 6 37 9 37 39 0 37 -9
66 -19 63 -3 -1 -28 -3 -56 -5z m-38 -261 c8 -5 3 -11 -13 -19 -21 -10 -24 -9
-24 8 0 20 16 24 37 11z m-62 -32 c-3 -5 -11 -10 -16 -10 -6 0 -7 5 -4 10 3 6
11 10 16 10 6 0 7 -4 4 -10z"/>
<path d="M903 1763 c-18 -2 -33 -10 -33 -16 0 -7 7 -75 15 -152 8 -77 15 -143
15 -147 0 -3 22 -5 50 -5 59 2 56 -13 38 190 -13 152 -5 140 -85 130z"/>
<path d="M722 1742 c-9 -7 -10 -30 -2 -108 6 -54 19 -209 30 -344 16 -213 17
-247 4 -260 -10 -10 -17 -11 -25 -3 -13 13 -12 3 -39 353 -11 140 -22 278 -25
305 l-6 50 -45 -4 c-29 -2 -48 -9 -51 -18 -3 -9 0 -74 7 -145 12 -118 14 -129
31 -125 11 3 19 1 19 -4 0 -8 -15 -13 -32 -10 -5 0 -8 -3 -8 -9 0 -5 8 -9 18
-8 43 3 72 -3 72 -16 0 -8 -7 -17 -16 -20 -14 -5 -16 -16 -11 -57 8 -62 -8
-56 -18 6 -4 29 -11 45 -18 42 -14 -4 -14 -6 -4 -187 9 -161 17 -197 56 -234
28 -27 33 -28 88 -21 32 3 88 8 125 9 77 4 123 26 150 73 18 29 18 39 3 204
-21 225 -20 223 -48 214 -12 -4 -34 -7 -49 -7 -33 1 -32 13 -14 -197 15 -161
13 -181 -10 -181 -22 0 -31 34 -38 145 -4 55 -13 170 -21 255 -8 85 -17 190
-20 233 l-7 77 -41 0 c-23 0 -48 -4 -55 -8z"/>
<path d="M214 1628 c7 -72 11 -78 31 -52 17 22 20 38 5 29 -6 -3 -10 5 -10 19
0 14 5 28 12 32 7 5 5 11 -7 21 -33 23 -38 15 -31 -49z"/>
<path d="M148 1653 c-8 -10 -19 -25 -23 -33 -8 -13 -7 -13 8 -1 15 12 17 10
17 -17 0 -17 -7 -38 -16 -46 -14 -15 -14 -17 0 -22 9 -3 16 -10 16 -15 0 -6
-9 -5 -21 1 -13 8 -19 19 -17 35 2 13 -1 24 -7 24 -5 1 -10 -9 -10 -22 0 -12
-5 -21 -12 -20 -14 3 -48 -139 -39 -162 3 -8 1 -17 -4 -20 -11 -7 -14 -58 -4
-68 3 -3 14 -1 24 5 9 6 26 8 36 4 15 -6 16 -9 4 -16 -8 -5 -17 -7 -21 -4 -15
9 -18 -28 -4 -42 18 -18 20 -28 3 -18 -8 5 -9 0 -5 -15 3 -12 -1 -28 -10 -36
-13 -14 -10 -19 10 -16 11 2 8 -17 -4 -25 -6 -3 -15 -1 -19 6 -5 7 -9 1 -12
-18 -3 -20 -1 -29 6 -25 7 5 7 2 0 -8 -6 -8 -12 -29 -12 -47 -1 -28 2 -32 14
-21 27 22 39 -6 14 -31 -17 -17 -20 -31 -18 -68 3 -41 6 -47 26 -46 12 0 22
-3 22 -8 0 -7 -15 -12 -32 -9 -5 0 -8 -15 -8 -34 0 -19 4 -35 9 -35 5 0 7 -9
4 -19 -7 -29 43 -276 83 -410 57 -189 114 -291 139 -250 4 6 13 8 21 5 19 -7
18 23 -6 114 -33 127 -30 120 -57 115 -24 -4 -24 -3 -9 14 16 18 23 46 8 38
-4 -3 -8 6 -9 20 0 14 -5 28 -10 32 -4 3 -9 13 -11 21 -2 8 -16 49 -31 90 -35
91 -55 182 -52 232 2 33 0 37 -16 32 -16 -5 -16 -4 -2 8 10 8 18 37 22 76 6
57 5 62 -12 62 -12 0 -21 -9 -24 -22 -4 -20 -4 -20 -6 4 -1 22 4 28 29 33 19
4 30 13 30 23 0 9 9 32 20 49 50 83 141 -1 175 -161 l12 -61 8 59 c15 117 2
189 -69 373 -62 162 -96 276 -111 371 -7 46 -14 51 -37 25z m-13 -363 c3 -5 1
-10 -4 -10 -6 0 -11 5 -11 10 0 6 2 10 4 10 3 0 8 -4 11 -10z m-45 -389 c0 -5
-9 -11 -21 -14 -16 -4 -18 -3 -8 9 13 16 29 19 29 5z m30 -173 c0 -16 -19 -47
-21 -33 0 6 -2 18 -4 28 -2 9 3 17 11 17 8 0 14 -6 14 -12z"/>
<path d="M259 1633 c-8 -9 -9 -14 -3 -10 7 4 14 -2 17 -13 3 -13 10 -18 21
-14 19 7 22 25 4 22 -7 -2 -12 2 -13 9 0 21 -12 24 -26 6z"/>
<path d="M281 1563 c-5 -10 -12 -17 -15 -15 -17 7 -36 0 -36 -14 0 -23 53
-178 84 -245 76 -168 106 -325 88 -469 -14 -114 -36 -164 -75 -168 -18 -2 -37
4 -49 15 -46 41 -88 162 -88 256 -1 37 -2 40 -13 22 -7 -13 -12 -64 -12 -140
0 -98 5 -134 24 -195 13 -41 28 -78 33 -81 5 -3 10 -10 10 -15 1 -12 2 -16 43
-127 20 -54 38 -111 42 -127 3 -17 9 -30 13 -30 5 0 6 -8 3 -19 -2 -10 3 -25
12 -35 9 -9 11 -16 5 -16 -13 0 -3 -41 12 -51 6 -4 6 -8 -2 -11 -7 -2 -9 -13
-5 -30 6 -22 10 -25 33 -19 20 6 31 19 43 52 18 49 35 137 19 104 -7 -16 -9
-16 -9 -4 -1 9 5 22 13 28 15 13 12 59 -5 76 -7 7 -9 0 -7 -20 2 -18 -2 -30
-9 -31 -7 -1 -17 -2 -23 -3 -5 0 -10 -5 -10 -11 0 -5 7 -7 15 -4 8 4 15 2 15
-4 0 -5 -9 -12 -19 -15 -23 -6 -33 21 -24 63 3 15 0 37 -6 49 -12 22 -3 29 15
11 12 -12 47 -2 38 11 -3 5 2 6 10 3 9 -3 16 -1 16 5 0 6 6 8 14 5 19 -7 27
127 20 346 -3 96 -5 189 -5 205 1 17 -2 25 -6 18 -5 -6 -9 28 -9 75 -3 145
-80 471 -130 547 -19 29 -49 33 -63 8z m59 -263 c-8 -5 -17 -7 -19 -4 -3 3 1
9 9 14 8 5 17 7 19 4 3 -3 -1 -9 -9 -14z m-143 -542 c-3 -8 -6 -5 -6 6 -1 11
2 17 5 13 3 -3 4 -12 1 -19z m28 -119 c-4 -5 -13 -9 -21 -9 -12 0 -12 2 -2 14
14 15 32 11 23 -5z m195 -279 c0 -5 -2 -10 -4 -10 -3 0 -8 5 -11 10 -3 6 -1
10 4 10 6 0 11 -4 11 -10z"/>
<path d="M1710 1428 c0 -40 7 -136 15 -213 8 -77 15 -150 15 -162 0 -20 5 -23
38 -23 65 0 64 -1 47 170 -8 84 -15 157 -15 161 0 5 -11 9 -25 9 -14 0 -25 5
-25 10 0 6 11 10 25 10 22 0 24 3 18 33 -7 41 -19 55 -35 39 -15 -15 -38 -16
-38 -2 0 6 7 10 16 10 23 0 11 24 -14 28 -21 3 -22 0 -22 -70z"/>
<path d="M1501 1446 c-7 -8 -37 -18 -67 -22 -30 -3 -56 -10 -59 -14 -8 -14 46
-42 93 -49 l46 -6 12 -65 c19 -95 18 -169 -2 -177 -25 -9 -34 9 -43 91 -5 42
-11 80 -15 83 -3 3 -26 2 -51 -2 l-47 -6 7 -87 c9 -106 24 -146 64 -166 48
-25 124 -21 159 9 49 41 55 68 43 194 -13 140 -35 194 -86 216 -45 18 -40 18
-54 1z"/>
<path d="M1657 943 c-16 -4 -18 -12 -13 -51 3 -26 20 -191 36 -367 17 -176 33
-331 36 -344 5 -23 7 -24 75 -17 86 8 120 30 156 104 26 53 26 54 14 155 -7
56 -14 104 -16 106 -2 2 -25 0 -50 -3 -29 -5 -45 -12 -45 -22 0 -8 4 -14 9
-14 5 0 18 -18 29 -40 22 -45 19 -51 -9 -17 -18 22 -18 22 -19 -40 0 -34 -5
-74 -12 -88 -12 -26 -38 -35 -38 -12 0 13 -34 375 -46 490 -6 63 -5 69 13 73
15 4 19 12 16 27 -4 20 -3 20 7 4 12 -18 13 -28 30 -221 5 -60 11 -110 12
-111 2 -1 19 -5 40 -9 62 -11 66 1 52 145 -7 68 -13 129 -13 136 -1 7 -8 10
-17 6 -8 -3 -13 -12 -10 -19 6 -16 -10 -28 -19 -14 -3 5 -16 10 -28 11 -21 0
-21 1 3 12 49 23 59 37 48 69 -17 47 -43 58 -138 57 -47 -1 -93 -3 -103 -6z"/>
<path d="M978 903 c-16 -2 -28 -7 -28 -11 0 -4 7 -70 15 -147 8 -77 15 -145
15 -152 0 -11 88 -13 99 -2 3 2 -1 75 -8 162 l-14 157 -26 -1 c-14 -1 -38 -4
-53 -6z"/>
<path d="M1115 900 c-4 -6 -4 -38 0 -71 l7 -59 49 0 c58 0 61 5 51 80 l-7 55
-47 3 c-26 2 -49 -2 -53 -8z"/>
<path d="M1306 903 c-28 -4 -28 -6 -22 -51 3 -26 8 -78 12 -117 3 -38 12 -133
20 -210 8 -77 14 -172 14 -211 0 -39 3 -99 6 -133 l7 -62 56 7 c31 3 58 8 59
10 2 1 -1 72 -7 157 -6 85 -14 188 -17 228 -2 41 -9 112 -14 159 -14 126 -14
130 15 130 35 0 40 -22 60 -290 14 -186 29 -320 36 -320 5 0 6 -13 3 -30 -6
-27 -4 -30 19 -30 13 0 39 3 57 6 31 7 32 8 25 43 -3 20 -8 81 -10 136 -3 55
-8 134 -12 175 -4 41 -6 95 -4 120 3 66 -17 188 -36 221 -35 58 -134 81 -267
62z m209 -83 c-3 -5 -16 -10 -28 -10 -18 0 -19 2 -7 10 20 13 43 13 35 0z"/>
<path d="M807 883 c-15 -4 -17 -12 -13 -46 3 -23 11 -94 17 -157 6 -63 14
-117 18 -120 3 -3 6 -50 6 -105 0 -55 2 -143 5 -195 5 -90 4 -95 -15 -95 -26
0 -29 21 -55 365 -28 377 -21 346 -76 341 -28 -2 -48 -9 -51 -18 -3 -7 4 -116
15 -241 12 -125 24 -272 27 -327 8 -127 18 -164 54 -199 27 -26 33 -28 88 -22
32 4 87 8 123 9 64 3 98 14 134 46 33 29 37 59 27 180 -6 64 -13 151 -17 194
l-6 79 -26 -7 c-15 -4 -40 -6 -55 -6 l-28 0 6 -72 c3 -40 10 -121 16 -180 5
-59 7 -112 4 -117 -8 -13 -32 -13 -41 1 -5 9 -32 280 -34 341 0 14 -6 16 -31
11 -25 -5 -31 -3 -27 8 2 8 15 16 28 17 22 4 23 4 16 110 -3 59 -9 131 -12
160 l-6 52 -37 -1 c-20 -1 -44 -3 -54 -6z m-130 -205 c-3 -8 -6 -5 -6 6 -1 11
2 17 5 13 3 -3 4 -12 1 -19z"/>
<path d="M341 804 c0 -11 3 -14 6 -6 3 7 2 16 -1 19 -3 4 -6 -2 -5 -13z"/>
<path d="M1163 723 c-30 -4 -31 -6 -31 -49 1 -24 5 -44 10 -44 5 0 7 -8 3 -19
-3 -10 4 -117 16 -237 12 -121 23 -230 23 -243 1 -22 4 -23 49 -18 26 2 49 6
51 8 2 2 -2 65 -10 139 -7 74 -14 137 -14 139 0 2 -6 -2 -14 -8 -9 -8 -16 -8
-20 -2 -4 5 3 16 15 24 15 11 17 16 7 21 -10 5 -10 7 0 12 18 8 15 55 -5 70
-11 8 -13 13 -5 14 13 0 15 33 6 103 -4 28 -11 44 -18 41 -6 -2 -17 5 -24 16
-10 17 -10 19 5 17 10 -1 20 3 23 8 6 11 -19 14 -67 8z"/>
<path d="M403 291 c0 -11 6 -17 14 -14 18 7 17 33 -1 33 -8 0 -14 -8 -13 -19z"/>
<path d="M312 59 c-8 -12 -9 -18 -4 -15 6 3 13 0 15 -6 3 -7 6 -1 6 15 1 33 0
33 -17 6z"/>
</g>
</svg>
