<?xml version="1.0" encoding="iso-8859-1"?>
<!-- Generator: Adobe Illustrator 17.1.0, SVG Export Plug-In . SVG Version: 6.00 Build 0)  -->
<!DOCTYPE svg PUBLIC "-//W3C//DTD SVG 1.1//EN" "http://www.w3.org/Graphics/SVG/1.1/DTD/svg11.dtd">
<svg version="1.1" id="Capa_1" xmlns="http://www.w3.org/2000/svg" xmlns:xlink="http://www.w3.org/1999/xlink" x="0px" y="0px"
	 viewBox="0 0 492.887 492.887" style="enable-background:new 0 0 492.887 492.887;" xml:space="preserve" fill="#f5f5f5">
<path d="M289.006,296.8l-17.996-30.39V53.158l22.174-23.437c1.317-1.393,2.052-3.237,2.052-5.154V7.5c0-4.143-3.357-7.5-7.5-7.5
	h-85.334c-4.143,0-7.5,3.357-7.5,7.5v17.077c0,2.058,0.846,4.024,2.338,5.44l24.638,23.378v211.363l-20.199,33.436
	c-0.039,0.064-0.077,0.129-0.114,0.194c-12.927,22.927-19.759,48.957-19.759,75.277v54.582c0,35.642,28.997,64.639,64.639,64.639
	s64.639-28.997,64.639-64.639v-52.201C311.082,348.088,303.437,320.665,289.006,296.8z M296.082,428.248
	c0,27.371-22.268,49.639-49.639,49.639s-49.639-22.268-49.639-49.639v-54.582c0-23.708,6.145-47.155,17.771-67.814l7.301-12.085
	v97.747c0,13.546,11.021,24.566,24.566,24.566s24.566-11.021,24.566-24.566v-76.797c0-4.143-3.357-7.5-7.5-7.5s-7.5,3.357-7.5,7.5
	v76.797c0,5.275-4.291,9.566-9.566,9.566s-9.566-4.291-9.566-9.566V266.849V57.673h6.592c4.143,0,7.5-3.357,7.5-7.5
	s-3.357-7.5-7.5-7.5h-11.1l-22.467-21.318V15h70.334v6.582l-22.174,23.437c-1.317,1.393-2.052,3.237-2.052,5.154v218.291
	c0,1.345,0.361,2.665,1.047,3.821l19.078,32.217c13.05,21.582,19.947,46.322,19.947,71.545V428.248z"/>
<g>
</g>
<g>
</g>
<g>
</g>
<g>
</g>
<g>
</g>
<g>
</g>
<g>
</g>
<g>
</g>
<g>
</g>
<g>
</g>
<g>
</g>
<g>
</g>
<g>
</g>
<g>
</g>
<g>
</g>
</svg>
